<svg width="1300" height="700" viewBox="0 0 1300 700" fill="none" xmlns="http://www.w3.org/2000/svg">
<path d="M610.417 375.873C599.603 375.174 589.328 371.616 581.059 365.706C572.79 359.796 566.95 351.837 564.372 342.966C561.795 334.094 562.612 324.764 566.706 316.307C570.801 307.849 577.964 300.698 587.173 295.873C589.133 283.007 596.593 271.183 608.157 262.614C619.721 254.045 634.596 249.319 650 249.319C665.404 249.319 680.279 254.045 691.843 262.614C703.407 271.183 710.867 283.007 712.827 295.873C722.036 300.698 729.199 307.849 733.294 316.307C737.388 324.764 738.205 334.094 735.628 342.966C733.05 351.837 727.21 359.796 718.941 365.706C710.672 371.616 700.397 375.174 689.583 375.873V376H610.417V375.873ZM657.917 322.667H681.667L650 289.333L618.333 322.667H642.083V349.333H657.917V322.667Z" fill="#1E77CC"/>
<path d="M397.727 452V417.091H409.932C412.364 417.091 414.369 417.511 415.949 418.352C417.528 419.182 418.705 420.301 419.477 421.71C420.25 423.108 420.636 424.659 420.636 426.364C420.636 427.864 420.369 429.102 419.835 430.08C419.313 431.057 418.619 431.83 417.756 432.398C416.903 432.966 415.977 433.386 414.977 433.659V434C416.045 434.068 417.119 434.443 418.199 435.125C419.278 435.807 420.182 436.784 420.909 438.057C421.636 439.33 422 440.886 422 442.727C422 444.477 421.602 446.051 420.807 447.449C420.011 448.847 418.756 449.955 417.04 450.773C415.324 451.591 413.091 452 410.341 452H397.727ZM401.955 448.25H410.341C413.102 448.25 415.063 447.716 416.222 446.648C417.392 445.568 417.977 444.261 417.977 442.727C417.977 441.545 417.676 440.455 417.074 439.455C416.472 438.443 415.614 437.636 414.5 437.034C413.386 436.42 412.068 436.114 410.545 436.114H401.955V448.25ZM401.955 432.432H409.795C411.068 432.432 412.216 432.182 413.239 431.682C414.273 431.182 415.091 430.477 415.693 429.568C416.307 428.659 416.614 427.591 416.614 426.364C416.614 424.83 416.08 423.528 415.011 422.46C413.943 421.381 412.25 420.841 409.932 420.841H401.955V432.432ZM428.401 452V425.818H432.287V429.773H432.56C433.037 428.477 433.901 427.426 435.151 426.619C436.401 425.812 437.81 425.409 439.378 425.409C439.673 425.409 440.043 425.415 440.486 425.426C440.929 425.437 441.264 425.455 441.491 425.477V429.568C441.355 429.534 441.043 429.483 440.554 429.415C440.077 429.335 439.571 429.295 439.037 429.295C437.764 429.295 436.628 429.562 435.628 430.097C434.639 430.619 433.855 431.347 433.276 432.278C432.707 433.199 432.423 434.25 432.423 435.432V452H428.401ZM456.099 452.545C453.736 452.545 451.662 451.983 449.878 450.858C448.105 449.733 446.719 448.159 445.719 446.136C444.73 444.114 444.236 441.75 444.236 439.045C444.236 436.318 444.73 433.937 445.719 431.903C446.719 429.869 448.105 428.29 449.878 427.165C451.662 426.04 453.736 425.477 456.099 425.477C458.463 425.477 460.531 426.04 462.304 427.165C464.088 428.29 465.474 429.869 466.463 431.903C467.463 433.937 467.963 436.318 467.963 439.045C467.963 441.75 467.463 444.114 466.463 446.136C465.474 448.159 464.088 449.733 462.304 450.858C460.531 451.983 458.463 452.545 456.099 452.545ZM456.099 448.932C457.895 448.932 459.372 448.472 460.531 447.551C461.69 446.631 462.548 445.42 463.105 443.92C463.662 442.42 463.94 440.795 463.94 439.045C463.94 437.295 463.662 435.665 463.105 434.153C462.548 432.642 461.69 431.42 460.531 430.489C459.372 429.557 457.895 429.091 456.099 429.091C454.304 429.091 452.827 429.557 451.668 430.489C450.509 431.42 449.651 432.642 449.094 434.153C448.537 435.665 448.259 437.295 448.259 439.045C448.259 440.795 448.537 442.42 449.094 443.92C449.651 445.42 450.509 446.631 451.668 447.551C452.827 448.472 454.304 448.932 456.099 448.932ZM479.145 452L471.168 425.818H475.395L481.054 445.864H481.327L486.918 425.818H491.213L496.736 445.795H497.009L502.668 425.818H506.895L498.918 452H494.963L489.236 431.886H488.827L483.099 452H479.145ZM530.759 431.682L527.145 432.705C526.918 432.102 526.582 431.517 526.139 430.949C525.707 430.369 525.116 429.892 524.366 429.517C523.616 429.142 522.656 428.955 521.486 428.955C519.884 428.955 518.548 429.324 517.48 430.062C516.423 430.79 515.895 431.716 515.895 432.841C515.895 433.841 516.259 434.631 516.986 435.21C517.713 435.79 518.849 436.273 520.395 436.659L524.281 437.614C526.622 438.182 528.366 439.051 529.514 440.222C530.662 441.381 531.236 442.875 531.236 444.705C531.236 446.205 530.804 447.545 529.94 448.727C529.088 449.909 527.895 450.841 526.361 451.523C524.827 452.205 523.043 452.545 521.009 452.545C518.338 452.545 516.128 451.966 514.378 450.807C512.628 449.648 511.52 447.955 511.054 445.727L514.872 444.773C515.236 446.182 515.923 447.239 516.935 447.943C517.957 448.648 519.293 449 520.94 449C522.815 449 524.304 448.602 525.406 447.807C526.52 447 527.077 446.034 527.077 444.909C527.077 444 526.759 443.239 526.122 442.625C525.486 442 524.509 441.534 523.19 441.227L518.827 440.205C516.429 439.636 514.668 438.756 513.543 437.562C512.429 436.358 511.872 434.852 511.872 433.045C511.872 431.568 512.287 430.261 513.116 429.125C513.957 427.989 515.099 427.097 516.543 426.449C517.997 425.801 519.645 425.477 521.486 425.477C524.077 425.477 526.111 426.045 527.588 427.182C529.077 428.318 530.134 429.818 530.759 431.682ZM548.268 452.545C545.746 452.545 543.57 451.989 541.74 450.875C539.922 449.75 538.518 448.182 537.53 446.17C536.553 444.148 536.064 441.795 536.064 439.114C536.064 436.432 536.553 434.068 537.53 432.023C538.518 429.966 539.893 428.364 541.655 427.216C543.428 426.057 545.496 425.477 547.859 425.477C549.223 425.477 550.57 425.705 551.899 426.159C553.229 426.614 554.439 427.352 555.53 428.375C556.621 429.386 557.49 430.727 558.138 432.398C558.786 434.068 559.109 436.125 559.109 438.568V440.273H538.928V436.795H555.018C555.018 435.318 554.723 434 554.132 432.841C553.553 431.682 552.723 430.767 551.643 430.097C550.575 429.426 549.314 429.091 547.859 429.091C546.257 429.091 544.871 429.489 543.7 430.284C542.541 431.068 541.649 432.091 541.024 433.352C540.399 434.614 540.087 435.966 540.087 437.409V439.727C540.087 441.705 540.428 443.381 541.109 444.756C541.803 446.119 542.763 447.159 543.99 447.875C545.217 448.58 546.643 448.932 548.268 448.932C549.325 448.932 550.28 448.784 551.132 448.489C551.996 448.182 552.74 447.727 553.365 447.125C553.99 446.511 554.473 445.75 554.814 444.841L558.7 445.932C558.291 447.25 557.604 448.409 556.638 449.409C555.672 450.398 554.479 451.17 553.058 451.727C551.638 452.273 550.041 452.545 548.268 452.545ZM579.274 452V417.091H600.206V420.841H583.501V432.636H598.638V436.386H583.501V452H579.274ZM606.901 452V425.818H610.923V452H606.901ZM608.946 421.455C608.162 421.455 607.486 421.188 606.918 420.653C606.361 420.119 606.082 419.477 606.082 418.727C606.082 417.977 606.361 417.335 606.918 416.801C607.486 416.267 608.162 416 608.946 416C609.73 416 610.401 416.267 610.957 416.801C611.526 417.335 611.81 417.977 611.81 418.727C611.81 419.477 611.526 420.119 610.957 420.653C610.401 421.188 609.73 421.455 608.946 421.455ZM622.314 417.091V452H618.291V417.091H622.314ZM640.659 452.545C638.136 452.545 635.96 451.989 634.131 450.875C632.312 449.75 630.909 448.182 629.92 446.17C628.943 444.148 628.455 441.795 628.455 439.114C628.455 436.432 628.943 434.068 629.92 432.023C630.909 429.966 632.284 428.364 634.045 427.216C635.818 426.057 637.886 425.477 640.25 425.477C641.614 425.477 642.96 425.705 644.29 426.159C645.619 426.614 646.83 427.352 647.92 428.375C649.011 429.386 649.881 430.727 650.528 432.398C651.176 434.068 651.5 436.125 651.5 438.568V440.273H631.318V436.795H647.409C647.409 435.318 647.114 434 646.523 432.841C645.943 431.682 645.114 430.767 644.034 430.097C642.966 429.426 641.705 429.091 640.25 429.091C638.648 429.091 637.261 429.489 636.091 430.284C634.932 431.068 634.04 432.091 633.415 433.352C632.79 434.614 632.477 435.966 632.477 437.409V439.727C632.477 441.705 632.818 443.381 633.5 444.756C634.193 446.119 635.153 447.159 636.381 447.875C637.608 448.58 639.034 448.932 640.659 448.932C641.716 448.932 642.67 448.784 643.523 448.489C644.386 448.182 645.131 447.727 645.756 447.125C646.381 446.511 646.864 445.75 647.205 444.841L651.091 445.932C650.682 447.25 649.994 448.409 649.028 449.409C648.063 450.398 646.869 451.17 645.449 451.727C644.028 452.273 642.432 452.545 640.659 452.545ZM676.165 431.682L672.551 432.705C672.324 432.102 671.989 431.517 671.545 430.949C671.114 430.369 670.523 429.892 669.773 429.517C669.023 429.142 668.062 428.955 666.892 428.955C665.29 428.955 663.955 429.324 662.886 430.062C661.83 430.79 661.301 431.716 661.301 432.841C661.301 433.841 661.665 434.631 662.392 435.21C663.119 435.79 664.256 436.273 665.801 436.659L669.688 437.614C672.028 438.182 673.773 439.051 674.92 440.222C676.068 441.381 676.642 442.875 676.642 444.705C676.642 446.205 676.21 447.545 675.347 448.727C674.494 449.909 673.301 450.841 671.767 451.523C670.233 452.205 668.449 452.545 666.415 452.545C663.744 452.545 661.534 451.966 659.784 450.807C658.034 449.648 656.926 447.955 656.46 445.727L660.278 444.773C660.642 446.182 661.33 447.239 662.341 447.943C663.364 448.648 664.699 449 666.347 449C668.222 449 669.71 448.602 670.812 447.807C671.926 447 672.483 446.034 672.483 444.909C672.483 444 672.165 443.239 671.528 442.625C670.892 442 669.915 441.534 668.597 441.227L664.233 440.205C661.835 439.636 660.074 438.756 658.949 437.562C657.835 436.358 657.278 434.852 657.278 433.045C657.278 431.568 657.693 430.261 658.523 429.125C659.364 427.989 660.506 427.097 661.949 426.449C663.403 425.801 665.051 425.477 666.892 425.477C669.483 425.477 671.517 426.045 672.994 427.182C674.483 428.318 675.54 429.818 676.165 431.682ZM707.584 425.818V429.227H694.016V425.818H707.584ZM697.97 419.545H701.993V444.5C701.993 445.636 702.158 446.489 702.487 447.057C702.828 447.614 703.26 447.989 703.783 448.182C704.317 448.364 704.879 448.455 705.47 448.455C705.913 448.455 706.277 448.432 706.561 448.386C706.845 448.33 707.072 448.284 707.243 448.25L708.061 451.864C707.788 451.966 707.408 452.068 706.919 452.17C706.43 452.284 705.811 452.341 705.061 452.341C703.925 452.341 702.811 452.097 701.72 451.608C700.641 451.119 699.743 450.375 699.027 449.375C698.322 448.375 697.97 447.114 697.97 445.591V419.545ZM723.99 452.545C721.626 452.545 719.553 451.983 717.768 450.858C715.996 449.733 714.609 448.159 713.609 446.136C712.621 444.114 712.126 441.75 712.126 439.045C712.126 436.318 712.621 433.937 713.609 431.903C714.609 429.869 715.996 428.29 717.768 427.165C719.553 426.04 721.626 425.477 723.99 425.477C726.354 425.477 728.422 426.04 730.195 427.165C731.979 428.29 733.365 429.869 734.354 431.903C735.354 433.937 735.854 436.318 735.854 439.045C735.854 441.75 735.354 444.114 734.354 446.136C733.365 448.159 731.979 449.733 730.195 450.858C728.422 451.983 726.354 452.545 723.99 452.545ZM723.99 448.932C725.786 448.932 727.263 448.472 728.422 447.551C729.581 446.631 730.439 445.42 730.996 443.92C731.553 442.42 731.831 440.795 731.831 439.045C731.831 437.295 731.553 435.665 730.996 434.153C730.439 432.642 729.581 431.42 728.422 430.489C727.263 429.557 725.786 429.091 723.99 429.091C722.195 429.091 720.717 429.557 719.558 430.489C718.399 431.42 717.541 432.642 716.984 434.153C716.428 435.665 716.149 437.295 716.149 439.045C716.149 440.795 716.428 442.42 716.984 443.92C717.541 445.42 718.399 446.631 719.558 447.551C720.717 448.472 722.195 448.932 723.99 448.932ZM771.994 441.295V425.818H776.017V452H771.994V447.568H771.722C771.108 448.898 770.153 450.028 768.858 450.96C767.563 451.881 765.926 452.341 763.949 452.341C762.312 452.341 760.858 451.983 759.585 451.267C758.313 450.54 757.313 449.449 756.585 447.994C755.858 446.528 755.494 444.682 755.494 442.455V425.818H759.517V442.182C759.517 444.091 760.051 445.614 761.119 446.75C762.199 447.886 763.574 448.455 765.244 448.455C766.244 448.455 767.261 448.199 768.295 447.688C769.341 447.176 770.216 446.392 770.92 445.335C771.636 444.278 771.994 442.932 771.994 441.295ZM783.385 461.818V425.818H787.271V429.977H787.749C788.044 429.523 788.453 428.943 788.976 428.239C789.51 427.523 790.271 426.886 791.26 426.33C792.26 425.761 793.612 425.477 795.317 425.477C797.521 425.477 799.464 426.028 801.146 427.131C802.828 428.233 804.141 429.795 805.084 431.818C806.027 433.841 806.499 436.227 806.499 438.977C806.499 441.75 806.027 444.153 805.084 446.188C804.141 448.21 802.834 449.778 801.163 450.892C799.493 451.994 797.567 452.545 795.385 452.545C793.703 452.545 792.357 452.267 791.345 451.71C790.334 451.142 789.555 450.5 789.01 449.784C788.464 449.057 788.044 448.455 787.749 447.977H787.408V461.818H783.385ZM787.339 438.909C787.339 440.886 787.629 442.631 788.209 444.142C788.788 445.642 789.635 446.818 790.749 447.67C791.862 448.511 793.226 448.932 794.839 448.932C796.521 448.932 797.925 448.489 799.05 447.602C800.186 446.705 801.038 445.5 801.607 443.989C802.186 442.466 802.476 440.773 802.476 438.909C802.476 437.068 802.192 435.409 801.624 433.932C801.067 432.443 800.22 431.267 799.084 430.403C797.959 429.528 796.544 429.091 794.839 429.091C793.203 429.091 791.828 429.506 790.714 430.335C789.601 431.153 788.76 432.301 788.192 433.778C787.624 435.244 787.339 436.955 787.339 438.909ZM816.658 417.091V452H812.635V417.091H816.658ZM834.662 452.545C832.298 452.545 830.224 451.983 828.44 450.858C826.668 449.733 825.281 448.159 824.281 446.136C823.293 444.114 822.798 441.75 822.798 439.045C822.798 436.318 823.293 433.937 824.281 431.903C825.281 429.869 826.668 428.29 828.44 427.165C830.224 426.04 832.298 425.477 834.662 425.477C837.026 425.477 839.094 426.04 840.866 427.165C842.651 428.29 844.037 429.869 845.026 431.903C846.026 433.937 846.526 436.318 846.526 439.045C846.526 441.75 846.026 444.114 845.026 446.136C844.037 448.159 842.651 449.733 840.866 450.858C839.094 451.983 837.026 452.545 834.662 452.545ZM834.662 448.932C836.457 448.932 837.935 448.472 839.094 447.551C840.253 446.631 841.111 445.42 841.668 443.92C842.224 442.42 842.503 440.795 842.503 439.045C842.503 437.295 842.224 435.665 841.668 434.153C841.111 432.642 840.253 431.42 839.094 430.489C837.935 429.557 836.457 429.091 834.662 429.091C832.866 429.091 831.389 429.557 830.23 430.489C829.071 431.42 828.213 432.642 827.656 434.153C827.099 435.665 826.821 437.295 826.821 439.045C826.821 440.795 827.099 442.42 827.656 443.92C828.213 445.42 829.071 446.631 830.23 447.551C831.389 448.472 832.866 448.932 834.662 448.932ZM860.371 452.614C858.712 452.614 857.206 452.301 855.854 451.676C854.501 451.04 853.428 450.125 852.632 448.932C851.837 447.727 851.439 446.273 851.439 444.568C851.439 443.068 851.734 441.852 852.325 440.92C852.916 439.977 853.706 439.239 854.695 438.705C855.683 438.17 856.774 437.773 857.967 437.511C859.172 437.239 860.382 437.023 861.598 436.864C863.189 436.659 864.479 436.506 865.467 436.403C866.467 436.29 867.195 436.102 867.649 435.841C868.115 435.58 868.348 435.125 868.348 434.477V434.341C868.348 432.659 867.888 431.352 866.967 430.42C866.058 429.489 864.678 429.023 862.825 429.023C860.905 429.023 859.399 429.443 858.308 430.284C857.217 431.125 856.45 432.023 856.007 432.977L852.189 431.614C852.871 430.023 853.78 428.784 854.916 427.898C856.064 427 857.314 426.375 858.666 426.023C860.03 425.659 861.371 425.477 862.689 425.477C863.53 425.477 864.496 425.58 865.587 425.784C866.689 425.977 867.751 426.381 868.774 426.994C869.808 427.608 870.666 428.534 871.348 429.773C872.03 431.011 872.371 432.67 872.371 434.75V452H868.348V448.455H868.143C867.871 449.023 867.416 449.631 866.78 450.278C866.143 450.926 865.297 451.477 864.24 451.932C863.183 452.386 861.893 452.614 860.371 452.614ZM860.984 449C862.575 449 863.916 448.688 865.007 448.062C866.109 447.438 866.939 446.631 867.496 445.642C868.064 444.653 868.348 443.614 868.348 442.523V438.841C868.178 439.045 867.803 439.233 867.223 439.403C866.655 439.562 865.996 439.705 865.246 439.83C864.507 439.943 863.786 440.045 863.081 440.136C862.388 440.216 861.825 440.284 861.393 440.341C860.348 440.477 859.371 440.699 858.462 441.006C857.564 441.301 856.837 441.75 856.28 442.352C855.734 442.943 855.462 443.75 855.462 444.773C855.462 446.17 855.979 447.227 857.013 447.943C858.058 448.648 859.382 449 860.984 449ZM889.599 452.545C887.418 452.545 885.491 451.994 883.821 450.892C882.151 449.778 880.844 448.21 879.901 446.188C878.957 444.153 878.486 441.75 878.486 438.977C878.486 436.227 878.957 433.841 879.901 431.818C880.844 429.795 882.156 428.233 883.838 427.131C885.52 426.028 887.463 425.477 889.668 425.477C891.372 425.477 892.719 425.761 893.707 426.33C894.707 426.886 895.469 427.523 895.991 428.239C896.526 428.943 896.94 429.523 897.236 429.977H897.577V417.091H901.599V452H897.713V447.977H897.236C896.94 448.455 896.52 449.057 895.974 449.784C895.429 450.5 894.651 451.142 893.639 451.71C892.628 452.267 891.281 452.545 889.599 452.545ZM890.145 448.932C891.759 448.932 893.122 448.511 894.236 447.67C895.349 446.818 896.196 445.642 896.776 444.142C897.355 442.631 897.645 440.886 897.645 438.909C897.645 436.955 897.361 435.244 896.793 433.778C896.224 432.301 895.384 431.153 894.27 430.335C893.156 429.506 891.781 429.091 890.145 429.091C888.44 429.091 887.02 429.528 885.884 430.403C884.759 431.267 883.912 432.443 883.344 433.932C882.787 435.409 882.509 437.068 882.509 438.909C882.509 440.773 882.793 442.466 883.361 443.989C883.94 445.5 884.793 446.705 885.918 447.602C887.054 448.489 888.463 448.932 890.145 448.932Z" fill="black"/>
<rect x="2.5" y="2.5" width="1295" height="695" rx="21.5" stroke="#1E77CC" stroke-width="5" stroke-dasharray="20 12"/>
</svg>
